<?xml version="1.0" encoding="UTF-8"?>
<svg id="Layer_1" data-name="Layer 1" xmlns="http://www.w3.org/2000/svg" version="1.1" viewBox="0 0 40 40">
  <defs>
    <style>
      .cls-1 {
        fill: #9771d3;
        stroke-width: 0px;
      }
    </style>
  </defs>
  <path class="cls-1" d="M18.6,21.4h-8.9c-.4,0-.7-.1-1-.4-.3-.3-.4-.6-.4-1s.1-.7.4-1c.3-.3.6-.4,1-.4h8.9v-8.9c0-.4.1-.7.4-1,.3-.3.6-.4,1-.4s.7.1,1,.4c.3.3.4.6.4,1v8.9h8.9c.4,0,.7.1,1,.4.3.3.4.6.4,1s-.1.7-.4,1c-.3.3-.6.4-1,.4h-8.9v8.9c0,.4-.1.7-.4,1-.3.3-.6.4-1,.4s-.7-.1-1-.4c-.3-.3-.4-.6-.4-1,0,0,0-8.9,0-8.9Z"/>
</svg>