<?xml version="1.0" encoding="UTF-8"?>
<svg id="Layer_1" data-name="Layer 1" xmlns="http://www.w3.org/2000/svg" version="1.1" viewBox="0 0 24 24">
  <defs>
    <style>
      .cls-1 {
        fill: #fff;
        opacity: .3;
      }

      .cls-1, .cls-2 {
        stroke-width: 0px;
      }

      .cls-2 {
        fill: #935ba2;
        opacity: .5;
      }
    </style>
  </defs>
  <path class="cls-2" d="M12,18.3c1.8,0,3.3-.6,4.5-1.9s1.9-2.7,1.9-4.5-.6-3.3-1.9-4.5-2.7-1.9-4.5-1.9-3.3.6-4.5,1.9-1.9,2.7-1.9,4.5.6,3.3,1.9,4.5,2.7,1.9,4.5,1.9Z"/>
  <path class="cls-1" d="M21.2,8.1c-.5-1.2-1.2-2.3-2.1-3.2-.9-.9-2-1.6-3.2-2.1-1.2-.5-2.5-.8-3.9-.8s-2.7.3-3.9.8c-1.2.5-2.3,1.2-3.2,2.1-.9.9-1.6,2-2.1,3.2-.5,1.2-.8,2.5-.8,3.9s.3,2.7.8,3.9c.5,1.2,1.2,2.3,2.1,3.2.9.9,2,1.6,3.2,2.1,1.2.5,2.5.8,3.9.8s2.7-.3,3.9-.8c1.2-.5,2.3-1.2,3.2-2.1.9-.9,1.6-2,2.1-3.2.5-1.2.8-2.5.8-3.9s-.3-2.7-.8-3.9ZM17.7,17.7c-1.5,1.5-3.4,2.3-5.7,2.3s-4.1-.8-5.7-2.3-2.3-3.4-2.3-5.7.8-4.1,2.3-5.7,3.4-2.3,5.7-2.3,4.1.8,5.7,2.3,2.3,3.4,2.3,5.7-.8,4.1-2.3,5.7Z"/>
</svg>