<?xml version="1.0" encoding="UTF-8"?>
<svg id="Layer_1" data-name="Layer 1" xmlns="http://www.w3.org/2000/svg" version="1.1" viewBox="0 0 40 40">
  <defs>
    <style>
      .cls-1 {
        fill: #9771d3;
        opacity: .5;
        stroke-width: 0px;
      }
    </style>
  </defs>
  <path class="cls-1" d="M7.9,31.7c-.8,0-1.4-.3-2-.8s-.8-1.2-.8-2V12.4c-.4,0-.7-.1-1-.4s-.4-.6-.4-1,.1-.7.4-1c.3-.3.6-.4,1-.4h5.1v-.7c0-.4.1-.7.4-1,.3-.3.6-.4,1-.4h3.2c.4,0,.7.1,1,.4.3.3.4.6.4,1v.7h5.1c.4,0,.7.1,1,.4.3.3.4.6.4,1s-.1.7-.4,1c-.3.3-.6.4-1,.4v16.5c0,.8-.3,1.4-.8,2-.6.6-1.2.8-2,.8H7.9ZM26.4,30.3c-.4,0-.7-.1-1-.4-.3-.3-.4-.6-.4-1s.1-.7.4-1c.3-.3.6-.4,1-.4h3.5c.4,0,.7.1,1,.4.3.3.4.6.4,1s-.1.7-.4,1c-.3.3-.6.4-1,.4,0,0-3.5,0-3.5,0ZM26.4,22.9c-.4,0-.7-.1-1-.4-.3-.3-.4-.6-.4-1s.1-.7.4-1c.3-.3.6-.4,1-.4h7.1c.4,0,.7.1,1,.4.3.3.4.6.4,1s-.1.7-.4,1c-.3.3-.6.4-1,.4h-7.1ZM26.4,15.6c-.4,0-.7-.1-1-.4-.3-.3-.4-.6-.4-1s.1-.7.4-1c.3-.3.6-.4,1-.4h8.9c.4,0,.7.1,1,.4.3.3.4.6.4,1s-.1.7-.4,1c-.3.3-.6.4-1,.4h-8.9ZM7.9,12.4v16.5h10.7V12.4H7.9Z"/>
</svg>